<?xml version="1.0" encoding="UTF-8" standalone="no"?>
<svg
   width="251.19576"
   height="244.20917"
   viewBox="0 0 251.19575 244.20917"
   version="1.1"
   xml:space="preserve"
   style="clip-rule:evenodd;fill-rule:evenodd;stroke-linejoin:round;stroke-miterlimit:2"
   id="svg152"
   sodipodi:docname="goldrath_logo_small.svg"
   inkscape:version="1.2.2 (b0a8486541, 2022-12-01)"
   xmlns:inkscape="http://www.inkscape.org/namespaces/inkscape"
   xmlns:sodipodi="http://sodipodi.sourceforge.net/DTD/sodipodi-0.dtd"
   xmlns="http://www.w3.org/2000/svg"
   xmlns:svg="http://www.w3.org/2000/svg"><defs
   id="defs156" /><sodipodi:namedview
   id="namedview154"
   pagecolor="#ffffff"
   bordercolor="#666666"
   borderopacity="1.0"
   inkscape:showpageshadow="2"
   inkscape:pageopacity="0.0"
   inkscape:pagecheckerboard="0"
   inkscape:deskcolor="#d1d1d1"
   showgrid="false"
   inkscape:zoom="0.99770467"
   inkscape:cx="513.67906"
   inkscape:cy="151.84854"
   inkscape:window-width="1920"
   inkscape:window-height="1019"
   inkscape:window-x="0"
   inkscape:window-y="0"
   inkscape:window-maximized="1"
   inkscape:current-layer="Artboard1" />
    <g
   id="Artboard1"
   transform="matrix(0.908607,0,0,0.813424,-974.65467,-602.91593)">
        
        <g
   id="Layer1"
   transform="matrix(1.10059,0,0,1.22937,-134.548,-202.849)">
            <circle
   cx="1167.15"
   cy="791.48199"
   r="17.339001"
   style="fill:#eec620"
   id="circle4" />
            <g
   transform="matrix(1.05769,0,0,1.05769,-88.1197,38.4754)"
   id="g8">
                <circle
   cx="1167.15"
   cy="791.48199"
   r="17.339001"
   style="fill:#eec620"
   id="circle6" />
            </g>
            <g
   transform="matrix(1.08333,0,0,1.08333,-148.723,65.3071)"
   id="g12">
                <circle
   cx="1167.15"
   cy="791.48199"
   r="17.339001"
   style="fill:#eec620"
   id="circle10" />
            </g>
            <g
   transform="matrix(1.04487,0,0,1.04487,18.2061,110.642)"
   id="g16">
                <circle
   cx="1167.15"
   cy="791.48199"
   r="17.339001"
   style="fill:#eec620"
   id="circle14" />
            </g>
            <g
   transform="matrix(0.923077,0,0,0.923077,192.035,235.161)"
   id="g20">
                <circle
   cx="1167.15"
   cy="791.48199"
   r="17.339001"
   style="fill:#eec620"
   id="circle18" />
            </g>
            <g
   transform="matrix(0.923077,0,0,0.923077,254.722,172.03)"
   id="g24">
                <circle
   cx="1167.15"
   cy="791.48199"
   r="17.339001"
   style="fill:#eec620"
   id="circle22" />
            </g>
            <g
   transform="matrix(0.923077,0,0,0.923077,197.37,53.3253)"
   id="g28">
                <circle
   cx="1167.15"
   cy="791.48199"
   r="17.339001"
   style="fill:#eec620"
   id="circle26" />
            </g>
            <g
   transform="matrix(0.480769,0,0,0.480769,556.113,450.863)"
   id="g32">
                <circle
   cx="1167.15"
   cy="791.48199"
   r="17.339001"
   style="fill:#eec620"
   id="circle30" />
            </g>
            <g
   transform="matrix(0.551282,0,0,0.551282,661.318,451.405)"
   id="g36">
                <circle
   cx="1167.15"
   cy="791.48199"
   r="17.339001"
   style="fill:#eec620"
   id="circle34" />
            </g>
            <g
   transform="matrix(0.49359,0,0,0.49359,725.875,524.298)"
   id="g40">
                <circle
   cx="1167.15"
   cy="791.48199"
   r="17.339001"
   style="fill:#eec620"
   id="circle38" />
            </g>
            <g
   transform="matrix(0.557692,0,0,0.557692,608.6,418.656)"
   id="g44">
                <circle
   cx="1167.15"
   cy="791.48199"
   r="17.339001"
   style="fill:#eec620"
   id="circle42" />
            </g>
            <g
   transform="matrix(0.474359,0,0,0.474359,750.654,458.716)"
   id="g48">
                <circle
   cx="1167.15"
   cy="791.48199"
   r="17.339001"
   style="fill:#eec620"
   id="circle46" />
            </g>
            <g
   transform="matrix(0.474359,0,0,0.474359,681.743,459.605)"
   id="g52">
                <circle
   cx="1167.15"
   cy="791.48199"
   r="17.339001"
   style="fill:#eec620"
   id="circle50" />
            </g>
            <g
   transform="matrix(0.474359,0,0,0.474359,656.402,544.076)"
   id="g56">
                <circle
   cx="1167.15"
   cy="791.48199"
   r="17.339001"
   style="fill:#eec620"
   id="circle54" />
            </g>
            <g
   transform="matrix(0.337826,0,0,0.337826,847.017,641.773)"
   id="g60">
                <circle
   cx="1167.15"
   cy="791.48199"
   r="17.339001"
   style="fill:#eec620"
   id="circle58" />
            </g>
            <g
   transform="matrix(0.375432,0,0,0.375432,749.952,611)"
   id="g64">
                <circle
   cx="1167.15"
   cy="791.48199"
   r="17.339001"
   style="fill:#eec620"
   id="circle62" />
            </g>
            <g
   transform="matrix(0.375432,0,0,0.375432,736.199,589.66)"
   id="g68">
                <circle
   cx="1167.15"
   cy="791.48199"
   r="17.339001"
   style="fill:#eec620"
   id="circle66" />
            </g>
            <g
   transform="matrix(0.375432,0,0,0.375432,737.859,567.609)"
   id="g72">
                <circle
   cx="1167.15"
   cy="791.48199"
   r="17.339001"
   style="fill:#eec620"
   id="circle70" />
            </g>
            <g
   transform="matrix(0.375432,0,0,0.375432,772.477,540.578)"
   id="g76">
                <circle
   cx="1167.15"
   cy="791.48199"
   r="17.339001"
   style="fill:#eec620"
   id="circle74" />
            </g>
            <g
   transform="matrix(0.375432,0,0,0.375432,788.601,708.471)"
   id="g80">
                <circle
   cx="1167.15"
   cy="791.48199"
   r="17.339001"
   style="fill:#eec620"
   id="circle78" />
            </g>
            <g
   transform="matrix(1.7156,0,0,1.7156,-786.955,-480.783)"
   id="g84">
                <circle
   cx="1167.15"
   cy="791.48199"
   r="17.339001"
   style="fill:#eec620"
   id="circle82" />
            </g>
            <g
   transform="matrix(0.474359,0,0,0.474359,659.514,586.756)"
   id="g88">
                <circle
   cx="1167.15"
   cy="791.48199"
   r="17.339001"
   style="fill:#eec620"
   id="circle86" />
            </g>
            <g
   transform="matrix(0.685897,0,0,0.685897,356.711,368.756)"
   id="g92">
                <circle
   cx="1167.15"
   cy="791.48199"
   r="17.339001"
   style="fill:#eec620"
   id="circle90" />
            </g>
            <g
   transform="matrix(0.75641,0,0,0.75641,407.677,261.708)"
   id="g96">
                <circle
   cx="1167.15"
   cy="791.48199"
   r="17.339001"
   style="fill:#eec620"
   id="circle94" />
            </g>
            <g
   transform="matrix(1.19231,0,0,1.19231,-121.196,-48.7305)"
   id="g100">
                <circle
   cx="1167.15"
   cy="791.48199"
   r="17.339001"
   style="fill:#eec620"
   id="circle98" />
            </g>
            <g
   transform="matrix(0.653846,0,0,0.653846,513.602,412.018)"
   id="g104">
                <circle
   cx="1167.15"
   cy="791.48199"
   r="17.339001"
   style="fill:#eec620"
   id="circle102" />
            </g>
            <g
   transform="matrix(1.20513,0,0,1.20513,-229.189,-121.898)"
   id="g108">
                <circle
   cx="1167.15"
   cy="791.48199"
   r="17.339001"
   style="fill:#eec620"
   id="circle106" />
            </g>
            <g
   transform="matrix(1.24359,0,0,1.24359,-232.955,-179.237)"
   id="g112">
                <circle
   cx="1167.15"
   cy="791.48199"
   r="17.339001"
   style="fill:#eec620"
   id="circle110" />
            </g>
            <g
   transform="matrix(1.24359,0,0,1.24359,-184.495,-159.231)"
   id="g116">
                <circle
   cx="1167.15"
   cy="791.48199"
   r="17.339001"
   style="fill:#eec620"
   id="circle114" />
            </g>
            <g
   transform="matrix(1.30128,0,0,1.30128,-334.857,-86.9668)"
   id="g120">
                <circle
   cx="1167.15"
   cy="791.48199"
   r="17.339001"
   style="fill:#eec620"
   id="circle118" />
            </g>
            <g
   transform="matrix(1.32692,0,0,1.32692,-238.077,-97.4803)"
   id="g124">
                <circle
   cx="1167.15"
   cy="791.48199"
   r="17.339001"
   style="fill:#eec620"
   id="circle122" />
            </g>
            <g
   transform="matrix(1.19101,0,0,1,-261.948,-186.209)"
   id="g148">
                
                
                
                
                
                
                
                
                
                
                
            </g>
        </g>
    </g>
</svg>
